<?xml version="1.0" encoding="utf-8"?>
<!-- Generator: Adobe Illustrator 26.3.1, SVG Export Plug-In . SVG Version: 6.00 Build 0)  -->
<svg version="1.1" id="Capa_1" xmlns="http://www.w3.org/2000/svg" xmlns:xlink="http://www.w3.org/1999/xlink" x="0px" y="0px"
	 viewBox="0 0 417 203.1" style="enable-background:new 0 0 417 203.1;" xml:space="preserve">
<style type="text/css">
	.st0{display:none;}
	.st1{display:inline;fill:#7C7C7C;stroke:#000000;stroke-miterlimit:10;}
	.st2{enable-background:new    ;}
	.st3{fill:#FFFFFF;}
</style>
<g id="Capa_1_1_" class="st0">
	<rect x="-11.5" y="-139.5" class="st1" width="500" height="500"/>
</g>
<g id="Capa_2_00000081614434573202473060000012199037678497770406_">
	
		<image style="display:none;overflow:visible;enable-background:new    ;" width="214" height="402" xlink:href="201CC77E0170A753.png"  transform="matrix(1 0 0 1 -159.3678 -120.9425)">
	</image>
</g>
<g>
	<g class="st2">
		<path class="st3" d="M94.4,75.7c22.8,0,24.5,17.5,8.6,18.6c-1.9-8.6-4.8-16.7-8.5-16.7c-3.5,0-5.1,3.8-5,8.8
			c0.1,15.4,25,13.7,25,30.9c0,9.1-5.7,17.4-20.2,17.4c-21.4,0-25.5-16.3-9.3-20.2c1.9,9.9,5.5,18.4,10.5,18.4c4.5,0,6.6-4,6.6-8.6
			c0-13.6-25.9-15-25.9-33C76.3,82.1,83.8,75.7,94.4,75.7z"/>
		<path class="st3" d="M130.4,76.6c3.4,0,4,3.4,4,7.3v26.7c0,15.2,2.3,21.7,7.6,21.7c5.3,0,7.7-6.5,7.7-21.7V82.4
			c0-2.6,0.1-4.1-1.7-5.8h10.3c3.4,0,4,3.4,4,7.3v26.7c0,17.6-7.2,24-20.3,24c-13,0-20.4-6.4-20.4-24V82.4c0-2.6,0.1-4.1-1.7-5.8
			H130.4z"/>
		<path class="st3" d="M189.9,76.6c9.9,0,20.1,1.3,20.1,16.4c0,12-8.1,15.3-15.8,16.1c10.7,5.1,13.2,18.8,19.4,22.4
			c-2.2,2.1-5.8,3.3-9.8,3.3c-12.2,0.1-9.5-20.3-16.6-25.7v-2.9c6.9,0,9.4-5.5,9.4-13.3c0-8.7-3-14.3-9.6-14.3h-3.3
			c0.6,1.3,0.8,3.3,0.8,5.2V128c0,2.6-0.1,4.1,1.7,5.8h-10.3c-3.4,0-4-3.4-4-7.3V82.4c0-2.6,0.1-4.1-1.7-5.8H189.9z"/>
		<path class="st3" d="M231.5,128c0,2.6-0.1,4.1,1.7,5.8h-10.3c-3.4,0-4-3.4-4-7.3V82.4c0-2.6,0.1-4.1-1.7-5.8h10.3
			c3.4,0,4,3.4,4,7.3V128z"/>
		<path class="st3" d="M276.3,118.3l5.3,5.3c-3.1,7.3-10.8,11.1-18.4,11.1c-15.1,0-25.1-13.2-25.1-29.6c0-16.6,9.3-29.4,24.1-29.4
			c7,0,16.1,2.5,18.6,10.3c3.1,10.2-5.2,14.3-10.7,15.2c-0.6-10.3-1.7-23.2-8.1-23.2c-7.1,0-10.4,12-10.4,27
			c0,15,4.5,27.4,11.7,27.4C268.3,132.4,271.6,128.3,276.3,118.3z"/>
		<path class="st3" d="M298.6,82.1c0.5-1.8,0.9-4-0.6-5.5h14.3l14,49.7c0.7,2.6,1.4,5.8,3.2,7.5h-12c-2.1,0-3.2-1.3-3.7-3.3
			l-3.9-13.7H295l-3.3,17h-8.4L298.6,82.1z M308.9,113.4l-7.8-28l-5.4,28H308.9z"/>
		<path class="st3" d="M325.4,76.6h44.8v10.9c-5.8-2.6-12.3-5.7-18-7.4c1.2,1.8,1.9,4.3,1.9,7.2V128c0,2.6-0.1,4.1,1.7,5.8h-10.3
			c-3.4,0-4-3.4-4-7.3V85.7c0-1.8-0.1-3.7-0.6-5.3c-5.3,1.8-11.3,4.8-15.5,7V76.6z"/>
		<path class="st3" d="M381.4,82.1c0.5-1.8,0.9-4-0.6-5.5h14.3l14,49.7c0.7,2.6,1.4,5.8,3.2,7.5h-12c-2.1,0-3.2-1.3-3.7-3.3
			l-3.9-13.7h-14.8l-3.3,17h-8.4L381.4,82.1z M391.8,113.4l-7.8-28l-5.4,28H391.8z"/>
	</g>
	<g class="st2">
		<path class="st3" d="M155.8,152.1c0-1.2,0-1.9-0.9-2.6h10.2c5.2,0,8.3,1.6,8.3,6c0,3-1.7,4.7-3.9,5.7c3.3,0.8,6.5,3.1,6.5,7.3
			c0,4.4-3.8,6.8-8.7,6.8h-12.4c1-0.8,0.9-1.5,0.9-2.6V152.1z M159.5,150.5c0.4,0.6,0.4,1.5,0.4,2.3V172c0,0.9-0.1,1.7-0.4,2.3h6.7
			c3,0,5.1-2.4,5.1-5.8c0-4.1-2.8-6.3-6.5-6.3h-2.7v-1.3h1.8c2.7,0,4.9-1.9,4.9-5.3c0-3.5-2.4-5.1-5.4-5.1H159.5z"/>
		<path class="st3" d="M190.3,164.5v-1.8c0-1.7-0.7-4.7-3.1-4.7c-3.3,0-4.4,5.7-4.4,5.7c-1.9-0.1-3.1-1.9-2.1-3.7
			c0.9-1.7,3.3-2.5,6.5-2.5c3.3,0,7,1.4,7,5v10.2c0,1.2-0.1,1.9,0.9,2.6H193c-2.1,0-2.6-1-2.6-2.7v0c-1,1.6-2.8,2.9-5.4,2.9
			c-4.4,0-6.1-2.5-6.1-4.3C178.9,167,187.5,166.5,190.3,164.5z M185.8,174.2c3.6,0,4.6-3.5,4.6-6v-2.7c-2.2,1.5-7.4,2.2-7.4,5.7
			C182.9,173.1,184.4,174.2,185.8,174.2z"/>
		<path class="st3" d="M200.6,157.7c1.9,0,2.3,1.1,2.3,2.8v0.6c1.2-2.3,2.9-3.7,4.9-3.7c3.4,0,4.9,3.3,2.7,6.4
			c-0.8-1.6-2.2-3.7-4.2-3.7c-1.8,0.1-3.2,2.1-3.4,5.6v6.9c0,1.2,0,1.9,0.9,2.7h-2.5c-1.9,0-2.3-1.1-2.3-2.9v-12.1
			c0-1.2,0-1.9-0.9-2.6H200.6z"/>
		<path class="st3" d="M243.2,149.5c5.4,0,10.8,0.5,10.8,7.3c0,5-3.9,7.2-8.1,7.6c4.9,2.9,6.9,10,10.6,10.3c-1,0.6-2.3,1-3.9,1
			c-5.3,0.1-4.8-9.9-11.1-11.5V163c0.2,0,0.5,0,0.8,0c3.3,0,7.1-1.3,7.1-6.3c0-4.2-2.2-6.4-6.9-6.4H239c0.4,0.6,0.4,1.5,0.4,2.3
			v19.9c0,1.2,0,1.9,0.9,2.6h-2.8c-1.9,0-2.2-1.5-2.2-3.3v-19.9c0-1.2,0-1.9-0.9-2.6H243.2z"/>
		<path class="st3" d="M266.6,157.4c5.2,0,8,3.1,7.9,8.3h-12.6c0,3.3,0.8,9.2,5.1,9.2c2.2,0,3.8-1.5,5.4-4.2l1.4,1.1
			c-1.4,2.4-3.3,3.7-6.9,3.7c-5.8,0-9.4-3.9-9.4-9.3C257.6,161.2,261.2,157.4,266.6,157.4z M270.2,164.7c0-2.9-1-6.7-4-6.7
			c-2.9,0-4.1,3.1-4.3,6.7H270.2z"/>
		<path class="st3" d="M284.3,157.4c6.6,0,8.2,3.9,4.7,5.7c-1.2-2.3-2.1-5.2-4.7-5.2c-1.8,0-2.8,1.2-2.8,2.9
			c0.1,5,10.1,3.7,10.1,9.9c0,3.1-3.4,4.8-7.7,4.8c-5.6,0-8.8-2.9-5.3-6.4c1.2,2.7,3.1,5.8,5.8,5.8c2.1,0,3.3-1.2,3.3-2.9
			c0-4.6-10.1-4-10.1-9.8C277.6,159.3,280.6,157.4,284.3,157.4z"/>
		<path class="st3" d="M294.2,158.7v-1h2.5v-3.6c0-1.2,0-1.9-1-2.6h2.5c1.9,0,2.3,1,2.3,2.8v3.4h3.7v1h-3.7v11.7
			c0,2.1,0.8,2.8,1.8,2.8c0.9,0,1.9-0.6,2.6-1.3c-0.4,2.5-2.4,3.6-4.3,3.6c-2,0-4-1.3-4-3.6v-13.3H294.2z"/>
		<path class="st3" d="M318.4,164.5v-1.8c0-1.7-0.7-4.7-3.1-4.7c-3.3,0-4.4,5.7-4.4,5.7c-1.9-0.1-3.1-1.9-2.1-3.7
			c0.9-1.7,3.3-2.5,6.5-2.5c3.3,0,7,1.4,7,5v10.2c0,1.2-0.1,1.9,0.9,2.6H321c-2.1,0-2.6-1-2.6-2.7v0c-1,1.6-2.8,2.9-5.4,2.9
			c-4.4,0-6.1-2.5-6.1-4.3C306.9,167,315.5,166.5,318.4,164.5z M313.8,174.2c3.6,0,4.6-3.5,4.6-6v-2.7c-2.2,1.5-7.4,2.2-7.4,5.7
			C311,173.1,312.4,174.2,313.8,174.2z"/>
		<path class="st3" d="M328.7,157.7c1.9,0,2.3,1,2.3,2.8v7.9c0,4.6,1.3,5.9,3.5,5.9c2.3,0,4-2.6,4.2-6.5v-7.5c0-1.2,0-1.9-0.9-2.6
			h2.5c1.9,0,2.3,1.1,2.3,2.8v12.1c0,1.2,0,1.9,0.9,2.7h-2.5c-1.8,0-2.2-1-2.3-2.6v-0.2c-1.2,1.9-3.1,3-5.4,3c-3.5,0-6.2-2.1-6.2-7
			v-8.2c0-1.2,0-1.9-0.9-2.6H328.7z"/>
		<path class="st3" d="M349.1,157.7c1.9,0,2.3,1.1,2.3,2.8v0.6c1.2-2.3,2.9-3.7,4.9-3.7c3.4,0,4.9,3.3,2.7,6.4
			c-0.8-1.6-2.2-3.7-4.2-3.7c-1.8,0.1-3.2,2.1-3.4,5.6v6.9c0,1.2,0,1.9,0.9,2.7h-2.5c-1.9,0-2.3-1.1-2.3-2.9v-12.1
			c0-1.2,0-1.9-0.9-2.6H349.1z"/>
		<path class="st3" d="M373,164.5v-1.8c0-1.7-0.7-4.7-3.1-4.7c-3.3,0-4.4,5.7-4.4,5.7c-1.9-0.1-3.1-1.9-2.1-3.7
			c0.9-1.7,3.3-2.5,6.5-2.5c3.3,0,7,1.4,7,5v10.2c0,1.2-0.1,1.9,0.9,2.6h-2.1c-2.1,0-2.6-1-2.6-2.7v0c-1,1.6-2.8,2.9-5.4,2.9
			c-4.4,0-6.1-2.5-6.1-4.3C361.6,167,370.2,166.5,373,164.5z M368.5,174.2c3.6,0,4.6-3.5,4.6-6v-2.7c-2.2,1.5-7.4,2.2-7.4,5.7
			C365.6,173.1,367.1,174.2,368.5,174.2z"/>
		<path class="st3" d="M383.3,157.7c1.7,0,2.2,1,2.3,2.5v0.2c1.2-1.9,3.1-3,5.4-3c3.5,0,6.2,2,6.2,7v8.2c0,1.2,0,1.9,0.9,2.6h-2.5
			c-1.9,0-2.3-1.1-2.3-2.8v-7.9c0-4.6-1.2-5.9-3.4-5.9c-2.3,0-4,2.5-4.3,6.4v7.5c0,1.2,0,1.9,0.9,2.7H384c-1.9,0-2.3-1.1-2.3-2.9
			v-12.1c0-1.2,0-1.9-0.9-2.6H383.3z"/>
		<path class="st3" d="M400.8,158.7v-1h2.5v-3.6c0-1.2,0-1.9-1-2.6h2.5c1.9,0,2.3,1,2.3,2.8v3.4h3.7v1h-3.7v11.7
			c0,2.1,0.8,2.8,1.8,2.8c0.9,0,1.9-0.6,2.6-1.3c-0.4,2.5-2.4,3.6-4.3,3.6c-2,0-4-1.3-4-3.6v-13.3H400.8z"/>
	</g>
	<g>
		<path class="st3" d="M107.3,195.7c-3.4,1.1-20.7,2.1-30.2,0.2c-9.5-1.9-12.9-18.7-17.7-31.7c-4.9-13-5-14.9-6.2-27.3
			c-1.2-12.4-2.7-69.4-1.9-73.3c0.7-3.9,1.5-3.8,1.5-9c-0.1-5.2-4-19.2-4.7-33.5C47.3,7,43.6,7.5,38.9,5c-4.7-2.5-14.7,0-16.6,1.5
			c-1.9,1.5-8.3,4.8-8.3,4.8s-2,0.7-5.8,2.1s-3.3,4.9-0.6,5.6c2.7,0.7,5.8-0.5,8-1.1c2.3-0.6,2,0.3,2,0.3c0.2,1.5-4,1.5-5.5,1.7
			c-1.5,0.2-1.6,0.7-1.6,0.7c0,1.9,5,2.3,10.2,2.2c5.2-0.2,7,0.5,8.7,7.1c1.6,6.6-1.5,10.4-4.5,14.3c-3.1,3.8-4.5,7.4-5.3,13.4
			c-0.8,6.1-1.1,23-0.9,25.4c0.2,2.4,3-2.3,4.8-5.2C25.1,75,25.1,66,25.1,66s0.6,8.4,0.5,11.4c-0.2,3-9.2,13.3-11.7,16.8
			c-2.5,3.5-2.3,15.8-2.5,18.4c-0.2,2.6,1.1,1.4,2.5-0.6c1.5-1.9,1.5-5.7,1.5-9.4s2.3-4.9,2.3-4.9s10.2-10,14.4-15.5
			c4.2-5.5,4.5-12.1,4.5-12.1c1.1,8.1-2.7,12.1-5.2,16c-2.5,4-13.5,13.9-13.5,13.9c-0.6,11.7,1.3,21.5,4.8,28
			c3.5,6.6,8.9,9.3,8.9,9.3l3.8-18.4c0,0-0.4,12.9-1.7,18.1c-1.3,5.2-0.5,20.8,0.7,26.1c1.2,5.3,5,14.5,5.8,19.5
			c0.8,5-7.8,13.8-9.6,15.5c-1.9,1.7,1.2,1.1,5.2,0.1c4-1,8.4-8.2,10.4-12.3c1.9-4.1,0.6-5.8-0.3-8.6c-0.9-2.8,0.1-6.7,1.9-12.6
			c1.9-5.9,2.4-22.5,2.4-22.5c1,3.5,0.5,13.3,0.5,18.7c0,5.4,2.5,9.2,2.5,9.2c6.6,16.3,12.1,23.8,18.1,26.8c6,3,31.6,1.3,34.4,0.4
			C108.6,196.5,107.3,195.7,107.3,195.7z M24.9,13.8c-1.3,0-2.4-0.9-2.4-1.9c0-1.1,1.1-1.9,2.4-1.9c1.3,0,2.4,0.9,2.4,1.9
			C27.3,13,26.3,13.8,24.9,13.8z"/>
		<path class="st3" d="M15.7,72.2c0.2-0.3,0.8-0.2,0.8,0.2l0.1,12c0,0,0.1-0.2-3.1,2.8s-4.8,4.6-4.8,10.4s-0.5,10.1-1.9,12.9
			s-1.9,3.2-2,0.9S4.5,90.7,5.9,88.2C7.1,86.1,13.4,75.5,15.7,72.2z"/>
		<path class="st3" d="M18.2,122.9c0,0,3.1,10,12.6,16.8c0,0,0.3,8.4-0.3,14.4c-0.6,6-2.2,16-1.8,18.3s2.1,4.9,2.9,6.3
			c0.8,1.5-1.1,4.4-1.8,7c-0.6,2.6-2,9.2-5.5,11.3s-6.6,3.1-5.3,0.1c1.2-3,5.6-7.6,4.7-12.2s-9.8-22.8-9.6-29.2
			C14.2,149.5,16.8,125.5,18.2,122.9z"/>
	</g>
</g>
</svg>
